<mxfile host="Electron" modified="2024-12-18T17:35:32.743Z" agent="Mozilla/5.0 (Macintosh; Intel Mac OS X 10_15_7) AppleWebKit/537.36 (KHTML, like Gecko) draw.io/24.5.3 Chrome/124.0.6367.207 Electron/30.0.6 Safari/537.36" etag="5Xn4F1WT6TGEv975TXP7" version="24.5.3" type="device">
  <diagram id="Jv2-rBzwsujwjwLR5Iln" name="Page-1">
    <mxGraphModel dx="1434" dy="854" grid="1" gridSize="10" guides="1" tooltips="1" connect="1" arrows="1" fold="1" page="1" pageScale="1" pageWidth="827" pageHeight="1169" math="1" shadow="0">
      <root>
        <mxCell id="0" />
        <mxCell id="1" parent="0" />
        <mxCell id="zsI8Y1DxjgsjxOHURFz3-7" value="&lt;span style=&quot;font-family: SFMono-Regular, Menlo, Monaco, Consolas, &amp;quot;Liberation Mono&amp;quot;, &amp;quot;Courier New&amp;quot;, monospace; font-size: 21px; font-style: normal; font-variant-ligatures: normal; font-variant-caps: normal; font-weight: 400; letter-spacing: normal; orphans: 2; text-align: left; text-indent: 0px; text-transform: none; widows: 2; word-spacing: 0px; -webkit-text-stroke-width: 0px; white-space: normal; background-color: rgb(255, 255, 255); text-decoration-thickness: initial; text-decoration-style: initial; text-decoration-color: initial; float: none; display: inline !important;&quot;&gt;&lt;font color=&quot;#030102&quot; style=&quot;font-size: 21px;&quot;&gt;$$\mathcal{N}(\mu_{\theta}, \tau)$$&lt;/font&gt;&lt;/span&gt;" style="text;whiteSpace=wrap;html=1;fontSize=21;verticalAlign=middle;" parent="1" vertex="1">
          <mxGeometry x="363.82" y="220" width="120" height="50" as="geometry" />
        </mxCell>
        <mxCell id="zsI8Y1DxjgsjxOHURFz3-9" value="" style="endArrow=classic;html=1;rounded=0;exitX=0.25;exitY=1;exitDx=0;exitDy=0;entryX=0.5;entryY=0;entryDx=0;entryDy=0;" parent="1" source="zsI8Y1DxjgsjxOHURFz3-7" target="zsI8Y1DxjgsjxOHURFz3-10" edge="1">
          <mxGeometry width="50" height="50" relative="1" as="geometry">
            <mxPoint x="390" y="410" as="sourcePoint" />
            <mxPoint x="200" y="360" as="targetPoint" />
          </mxGeometry>
        </mxCell>
        <mxCell id="zsI8Y1DxjgsjxOHURFz3-10" value="Replication" style="text;html=1;align=center;verticalAlign=middle;whiteSpace=wrap;rounded=0;fontSize=20;" parent="1" vertex="1">
          <mxGeometry x="99" y="350" width="230" height="30" as="geometry" />
        </mxCell>
        <mxCell id="zsI8Y1DxjgsjxOHURFz3-12" value="" style="endArrow=classic;html=1;rounded=0;exitX=0.75;exitY=1;exitDx=0;exitDy=0;entryX=0.5;entryY=0;entryDx=0;entryDy=0;" parent="1" source="zsI8Y1DxjgsjxOHURFz3-7" target="zsI8Y1DxjgsjxOHURFz3-13" edge="1">
          <mxGeometry width="50" height="50" relative="1" as="geometry">
            <mxPoint x="483.83" y="310" as="sourcePoint" />
            <mxPoint x="640" y="360" as="targetPoint" />
          </mxGeometry>
        </mxCell>
        <mxCell id="zsI8Y1DxjgsjxOHURFz3-13" value="Extension" style="text;html=1;align=center;verticalAlign=middle;whiteSpace=wrap;rounded=0;fontSize=20;" parent="1" vertex="1">
          <mxGeometry x="510" y="350" width="230" height="30" as="geometry" />
        </mxCell>
        <mxCell id="zsI8Y1DxjgsjxOHURFz3-21" value="&lt;span style=&quot;text-align: left; background-color: rgb(215, 233, 255); font-size: 20px;&quot;&gt;$$\Pr(H_1) = \pi$$&lt;/span&gt;" style="rounded=0;whiteSpace=wrap;html=1;fillColor=#d7e9ff;fontSize=20;" parent="1" vertex="1">
          <mxGeometry x="511" y="20" width="169" height="40" as="geometry" />
        </mxCell>
        <mxCell id="zsI8Y1DxjgsjxOHURFz3-22" value="$$\Pr(H_0) = 1 - \pi$$" style="rounded=0;whiteSpace=wrap;html=1;fillColor=#b3b3b3;fontSize=20;" parent="1" vertex="1">
          <mxGeometry x="511" y="80" width="169" height="40" as="geometry" />
        </mxCell>
        <mxCell id="zsI8Y1DxjgsjxOHURFz3-76" style="edgeStyle=orthogonalEdgeStyle;rounded=0;orthogonalLoop=1;jettySize=auto;html=1;exitX=0.5;exitY=1;exitDx=0;exitDy=0;fontSize=20;" parent="1" source="zsI8Y1DxjgsjxOHURFz3-28" edge="1">
          <mxGeometry relative="1" as="geometry">
            <mxPoint x="451" y="480" as="targetPoint" />
          </mxGeometry>
        </mxCell>
        <mxCell id="zsI8Y1DxjgsjxOHURFz3-28" value="$$\theta_0$$" style="rounded=0;whiteSpace=wrap;html=1;fillColor=#fff2cc;strokeColor=#d6b656;fontSize=20;" parent="1" vertex="1">
          <mxGeometry x="431" y="405" width="40" height="40" as="geometry" />
        </mxCell>
        <mxCell id="zsI8Y1DxjgsjxOHURFz3-57" style="edgeStyle=orthogonalEdgeStyle;rounded=0;orthogonalLoop=1;jettySize=auto;html=1;exitX=0.5;exitY=1;exitDx=0;exitDy=0;fontSize=20;" parent="1" source="zsI8Y1DxjgsjxOHURFz3-31" edge="1">
          <mxGeometry relative="1" as="geometry">
            <mxPoint x="512" y="480" as="targetPoint" />
          </mxGeometry>
        </mxCell>
        <mxCell id="zsI8Y1DxjgsjxOHURFz3-31" value="$$\theta_1$$" style="rounded=0;whiteSpace=wrap;html=1;fontSize=20;" parent="1" vertex="1">
          <mxGeometry x="492" y="405" width="40" height="40" as="geometry" />
        </mxCell>
        <mxCell id="zsI8Y1DxjgsjxOHURFz3-63" style="edgeStyle=orthogonalEdgeStyle;rounded=0;orthogonalLoop=1;jettySize=auto;html=1;exitX=0.5;exitY=1;exitDx=0;exitDy=0;fontSize=20;" parent="1" source="zsI8Y1DxjgsjxOHURFz3-32" edge="1">
          <mxGeometry relative="1" as="geometry">
            <mxPoint x="571" y="480" as="targetPoint" />
          </mxGeometry>
        </mxCell>
        <mxCell id="zsI8Y1DxjgsjxOHURFz3-32" value="$$\theta_2$$" style="rounded=0;whiteSpace=wrap;html=1;fontSize=20;" parent="1" vertex="1">
          <mxGeometry x="551" y="405" width="40" height="40" as="geometry" />
        </mxCell>
        <mxCell id="zsI8Y1DxjgsjxOHURFz3-64" style="edgeStyle=orthogonalEdgeStyle;rounded=0;orthogonalLoop=1;jettySize=auto;html=1;exitX=0.5;exitY=1;exitDx=0;exitDy=0;fontSize=20;" parent="1" source="zsI8Y1DxjgsjxOHURFz3-33" edge="1">
          <mxGeometry relative="1" as="geometry">
            <mxPoint x="631" y="480" as="targetPoint" />
          </mxGeometry>
        </mxCell>
        <mxCell id="zsI8Y1DxjgsjxOHURFz3-33" value="$$\theta_3$$" style="rounded=0;whiteSpace=wrap;html=1;fontSize=20;" parent="1" vertex="1">
          <mxGeometry x="611" y="405" width="40" height="40" as="geometry" />
        </mxCell>
        <mxCell id="zsI8Y1DxjgsjxOHURFz3-36" value="..." style="rounded=0;whiteSpace=wrap;html=1;strokeColor=none;fillColor=none;fontSize=20;" parent="1" vertex="1">
          <mxGeometry x="662" y="405" width="40" height="40" as="geometry" />
        </mxCell>
        <mxCell id="zsI8Y1DxjgsjxOHURFz3-42" value="$$\theta_0$$" style="rounded=0;whiteSpace=wrap;html=1;fillColor=#fff2cc;strokeColor=#d6b656;fontSize=20;" parent="1" vertex="1">
          <mxGeometry x="189" y="405" width="40" height="40" as="geometry" />
        </mxCell>
        <mxCell id="zsI8Y1DxjgsjxOHURFz3-65" style="edgeStyle=orthogonalEdgeStyle;rounded=0;orthogonalLoop=1;jettySize=auto;html=1;exitX=0.5;exitY=1;exitDx=0;exitDy=0;fontSize=20;" parent="1" source="zsI8Y1DxjgsjxOHURFz3-47" edge="1">
          <mxGeometry relative="1" as="geometry">
            <mxPoint x="740" y="480" as="targetPoint" />
          </mxGeometry>
        </mxCell>
        <mxCell id="zsI8Y1DxjgsjxOHURFz3-47" value="$$\theta_R$$" style="rounded=0;whiteSpace=wrap;html=1;fontSize=20;" parent="1" vertex="1">
          <mxGeometry x="720" y="405" width="40" height="40" as="geometry" />
        </mxCell>
        <mxCell id="zsI8Y1DxjgsjxOHURFz3-58" value="$$\hat\theta_1$$" style="rounded=0;whiteSpace=wrap;html=1;fontSize=20;" parent="1" vertex="1">
          <mxGeometry x="492" y="490" width="40" height="40" as="geometry" />
        </mxCell>
        <mxCell id="zsI8Y1DxjgsjxOHURFz3-59" value="$$\hat\theta_2$$" style="rounded=0;whiteSpace=wrap;html=1;fontSize=20;" parent="1" vertex="1">
          <mxGeometry x="551" y="490" width="40" height="40" as="geometry" />
        </mxCell>
        <mxCell id="zsI8Y1DxjgsjxOHURFz3-60" value="$$\hat\theta_3$$" style="rounded=0;whiteSpace=wrap;html=1;fontSize=20;" parent="1" vertex="1">
          <mxGeometry x="611" y="490" width="40" height="40" as="geometry" />
        </mxCell>
        <mxCell id="zsI8Y1DxjgsjxOHURFz3-61" value="..." style="rounded=0;whiteSpace=wrap;html=1;strokeColor=none;fillColor=none;fontSize=20;" parent="1" vertex="1">
          <mxGeometry x="662" y="490" width="40" height="40" as="geometry" />
        </mxCell>
        <mxCell id="zsI8Y1DxjgsjxOHURFz3-62" value="$$\hat\theta_R$$" style="rounded=0;whiteSpace=wrap;html=1;fontSize=20;" parent="1" vertex="1">
          <mxGeometry x="720" y="490" width="40" height="40" as="geometry" />
        </mxCell>
        <mxCell id="zsI8Y1DxjgsjxOHURFz3-71" value="$$\hat\theta_1$$" style="rounded=0;whiteSpace=wrap;html=1;fontSize=20;" parent="1" vertex="1">
          <mxGeometry x="110" y="490" width="40" height="40" as="geometry" />
        </mxCell>
        <mxCell id="zsI8Y1DxjgsjxOHURFz3-72" value="$$\hat\theta_2$$" style="rounded=0;whiteSpace=wrap;html=1;fontSize=20;" parent="1" vertex="1">
          <mxGeometry x="169" y="490" width="40" height="40" as="geometry" />
        </mxCell>
        <mxCell id="zsI8Y1DxjgsjxOHURFz3-73" value="$$\hat\theta_3$$" style="rounded=0;whiteSpace=wrap;html=1;fontSize=20;" parent="1" vertex="1">
          <mxGeometry x="229" y="490" width="40" height="40" as="geometry" />
        </mxCell>
        <mxCell id="zsI8Y1DxjgsjxOHURFz3-74" value="..." style="rounded=0;whiteSpace=wrap;html=1;strokeColor=none;fillColor=none;fontSize=20;" parent="1" vertex="1">
          <mxGeometry x="280" y="490" width="40" height="40" as="geometry" />
        </mxCell>
        <mxCell id="zsI8Y1DxjgsjxOHURFz3-75" value="$$\hat\theta_R$$" style="rounded=0;whiteSpace=wrap;html=1;fontSize=20;" parent="1" vertex="1">
          <mxGeometry x="338" y="490" width="40" height="40" as="geometry" />
        </mxCell>
        <mxCell id="zsI8Y1DxjgsjxOHURFz3-77" value="$$\hat\theta_0$$" style="rounded=0;whiteSpace=wrap;html=1;fillColor=#fff2cc;strokeColor=#d6b656;fontSize=20;" parent="1" vertex="1">
          <mxGeometry x="431" y="490" width="40" height="40" as="geometry" />
        </mxCell>
        <mxCell id="zsI8Y1DxjgsjxOHURFz3-78" value="$$\hat\theta_0$$" style="rounded=0;whiteSpace=wrap;html=1;fillColor=#fff2cc;strokeColor=#d6b656;fontSize=20;" parent="1" vertex="1">
          <mxGeometry x="50" y="490" width="40" height="40" as="geometry" />
        </mxCell>
        <mxCell id="93wa-ltw1NWBgcI08kh3-1" value="0" style="text;html=1;align=center;verticalAlign=middle;whiteSpace=wrap;rounded=0;fontSize=14;" parent="1" vertex="1">
          <mxGeometry x="393.82" y="190" width="60" height="30" as="geometry" />
        </mxCell>
        <mxCell id="hzk1vnJ8GrGAvqPtQIsL-1" value="" style="shape=image;aspect=fixed;image=data:image/svg+xml,PD94bWwgdmVyc2lvbj0nMS4wJyBlbmNvZGluZz0nVVRGLTgnID8+CjxzdmcgeG1sbnM9J2h0dHA6Ly93d3cudzMub3JnLzIwMDAvc3ZnJyB4bWxuczp4bGluaz0naHR0cDovL3d3dy53My5vcmcvMTk5OS94bGluaycgY2xhc3M9J3N2Z2xpdGUnIHdpZHRoPScyODguMDBwdCcgaGVpZ2h0PScxNDQuMDBwdCcgdmlld0JveD0nMCAwIDI4OC4wMCAxNDQuMDAnPgo8ZGVmcz4KICA8c3R5bGUgdHlwZT0ndGV4dC9jc3MnPjwhW0NEQVRBWwogICAgLnN2Z2xpdGUgbGluZSwgLnN2Z2xpdGUgcG9seWxpbmUsIC5zdmdsaXRlIHBvbHlnb24sIC5zdmdsaXRlIHBhdGgsIC5zdmdsaXRlIHJlY3QsIC5zdmdsaXRlIGNpcmNsZSB7CiAgICAgIGZpbGw6IG5vbmU7CiAgICAgIHN0cm9rZTogIzAwMDAwMDsKICAgICAgc3Ryb2tlLWxpbmVjYXA6IHJvdW5kOwogICAgICBzdHJva2UtbGluZWpvaW46IHJvdW5kOwogICAgICBzdHJva2UtbWl0ZXJsaW1pdDogMTAuMDA7CiAgICB9CiAgICAuc3ZnbGl0ZSB0ZXh0IHsKICAgICAgd2hpdGUtc3BhY2U6IHByZTsKICAgIH0KICBdXT48L3N0eWxlPgo8L2RlZnM+CjxyZWN0IHdpZHRoPScxMDAlJyBoZWlnaHQ9JzEwMCUnIHN0eWxlPSdzdHJva2U6IG5vbmU7IGZpbGw6IG5vbmU7Jy8+CjxkZWZzPgogIDxjbGlwUGF0aCBpZD0nY3BNQzR3TUh3eU9EZ3VNREI4TUM0d01Id3hORFF1TURBPSc+CiAgICA8cmVjdCB4PScwLjAwJyB5PScwLjAwJyB3aWR0aD0nMjg4LjAwJyBoZWlnaHQ9JzE0NC4wMCcgLz4KICA8L2NsaXBQYXRoPgo8L2RlZnM+CjxnIGNsaXAtcGF0aD0ndXJsKCNjcE1DNHdNSHd5T0RndU1EQjhNQzR3TUh3eE5EUXVNREE9KSc+Cjxwb2x5bGluZSBwb2ludHM9JzEzLjA5LDEzNy40NSAxNS43MSwxMzcuNDUgMTguMzMsMTM3LjQ1IDIwLjk1LDEzNy40NSAyMy41NiwxMzcuNDUgMjYuMTgsMTM3LjQ1IDI4LjgwLDEzNy40NSAzMS40MiwxMzcuNDQgMzQuMDQsMTM3LjQ0IDM2LjY1LDEzNy40MyAzOS4yNywxMzcuNDEgNDEuODksMTM3LjM5IDQ0LjUxLDEzNy4zNiA0Ny4xMywxMzcuMzIgNDkuNzUsMTM3LjI1IDUyLjM2LDEzNy4xNyA1NC45OCwxMzcuMDUgNTcuNjAsMTM2Ljg5IDYwLjIyLDEzNi42NyA2Mi44NCwxMzYuMzggNjUuNDUsMTM2LjAwIDY4LjA3LDEzNS41MCA3MC42OSwxMzQuODYgNzMuMzEsMTM0LjA0IDc1LjkzLDEzMy4wMCA3OC41NSwxMzEuNzAgODEuMTYsMTMwLjExIDgzLjc4LDEyOC4xNiA4Ni40MCwxMjUuODEgODkuMDIsMTIzLjAyIDkxLjY0LDExOS43NCA5NC4yNSwxMTUuOTIgOTYuODcsMTExLjU1IDk5LjQ5LDEwNi41OSAxMDIuMTEsMTAxLjA2IDEwNC43Myw5NC45NSAxMDcuMzUsODguMzIgMTA5Ljk2LDgxLjIyIDExMi41OCw3My43MyAxMTUuMjAsNjUuOTcgMTE3LjgyLDU4LjA1IDEyMC40NCw1MC4xNCAxMjMuMDUsNDIuNDAgMTI1LjY3LDM0Ljk5IDEyOC4yOSwyOC4xMSAxMzAuOTEsMjEuOTMgMTMzLjUzLDE2LjYxIDEzNi4xNSwxMi4zMSAxMzguNzYsOS4xNCAxNDEuMzgsNy4yMCAxNDQuMDAsNi41NSAxNDYuNjIsNy4yMCAxNDkuMjQsOS4xNCAxNTEuODUsMTIuMzEgMTU0LjQ3LDE2LjYxIDE1Ny4wOSwyMS45MyAxNTkuNzEsMjguMTEgMTYyLjMzLDM0Ljk5IDE2NC45NSw0Mi40MCAxNjcuNTYsNTAuMTQgMTcwLjE4LDU4LjA1IDE3Mi44MCw2NS45NyAxNzUuNDIsNzMuNzMgMTc4LjA0LDgxLjIyIDE4MC42NSw4OC4zMiAxODMuMjcsOTQuOTUgMTg1Ljg5LDEwMS4wNiAxODguNTEsMTA2LjU5IDE5MS4xMywxMTEuNTUgMTkzLjc1LDExNS45MiAxOTYuMzYsMTE5Ljc0IDE5OC45OCwxMjMuMDIgMjAxLjYwLDEyNS44MSAyMDQuMjIsMTI4LjE2IDIwNi44NCwxMzAuMTEgMjA5LjQ1LDEzMS43MCAyMTIuMDcsMTMzLjAwIDIxNC42OSwxMzQuMDQgMjE3LjMxLDEzNC44NiAyMTkuOTMsMTM1LjUwIDIyMi41NSwxMzYuMDAgMjI1LjE2LDEzNi4zOCAyMjcuNzgsMTM2LjY3IDIzMC40MCwxMzYuODkgMjMzLjAyLDEzNy4wNSAyMzUuNjQsMTM3LjE3IDIzOC4yNSwxMzcuMjUgMjQwLjg3LDEzNy4zMiAyNDMuNDksMTM3LjM2IDI0Ni4xMSwxMzcuMzkgMjQ4LjczLDEzNy40MSAyNTEuMzUsMTM3LjQzIDI1My45NiwxMzcuNDQgMjU2LjU4LDEzNy40NCAyNTkuMjAsMTM3LjQ1IDI2MS44MiwxMzcuNDUgMjY0LjQ0LDEzNy40NSAyNjcuMDUsMTM3LjQ1IDI2OS42NywxMzcuNDUgMjcyLjI5LDEzNy40NSAyNzQuOTEsMTM3LjQ1ICcgc3R5bGU9J3N0cm9rZS13aWR0aDogMS4wNzsgc3Ryb2tlLWxpbmVjYXA6IGJ1dHQ7JyAvPgo8cG9seWdvbiBwb2ludHM9JzE1LjUwLDEzNy40NSAyMC42MywxMzcuNDUgMjUuNzYsMTM3LjQ1IDMwLjg5LDEzNy40NCAzNi4wMywxMzcuNDMgNDEuMTYsMTM3LjQwIDQ2LjI5LDEzNy4zMyA1MS40MiwxMzcuMjAgNTYuNTUsMTM2Ljk2IDYxLjY4LDEzNi41MiA2Ni44MiwxMzUuNzYgNzEuOTUsMTM0LjQ5IDc3LjA4LDEzMi40NiA4Mi4yMSwxMjkuMzcgODcuMzQsMTI0Ljg2IDkyLjQ3LDExOC41OCA5Ny42MSwxMTAuMjIgMTAyLjc0LDk5LjY0IDEwNy44Nyw4Ni45NCAxMTMuMDAsNzIuNTEgMTE4LjEzLDU3LjEwIDEyMy4yNiw0MS43OSAxMjguNDAsMjcuODUgMTMzLjUzLDE2LjYxIDEzMy41MywxMzcuNDUgMTI4LjQwLDEzNy40NSAxMjMuMjYsMTM3LjQ1IDExOC4xMywxMzcuNDUgMTEzLjAwLDEzNy40NSAxMDcuODcsMTM3LjQ1IDEwMi43NCwxMzcuNDUgOTcuNjEsMTM3LjQ1IDkyLjQ3LDEzNy40NSA4Ny4zNCwxMzcuNDUgODIuMjEsMTM3LjQ1IDc3LjA4LDEzNy40NSA3MS45NSwxMzcuNDUgNjYuODIsMTM3LjQ1IDYxLjY4LDEzNy40NSA1Ni41NSwxMzcuNDUgNTEuNDIsMTM3LjQ1IDQ2LjI5LDEzNy40NSA0MS4xNiwxMzcuNDUgMzYuMDMsMTM3LjQ1IDMwLjg5LDEzNy40NSAyNS43NiwxMzcuNDUgMjAuNjMsMTM3LjQ1IDE1LjUwLDEzNy40NSAnIHN0eWxlPSdzdHJva2Utd2lkdGg6IDAuMDA7IHN0cm9rZTogbm9uZTsgc3Ryb2tlLWxpbmVjYXA6IGJ1dHQ7IGZpbGw6ICMxRTkwRkY7IGZpbGwtb3BhY2l0eTogMC40MDsnIC8+Cjxwb2x5bGluZSBwb2ludHM9JzE1LjUwLDEzNy40NSAyMC42MywxMzcuNDUgMjUuNzYsMTM3LjQ1IDMwLjg5LDEzNy40NCAzNi4wMywxMzcuNDMgNDEuMTYsMTM3LjQwIDQ2LjI5LDEzNy4zMyA1MS40MiwxMzcuMjAgNTYuNTUsMTM2Ljk2IDYxLjY4LDEzNi41MiA2Ni44MiwxMzUuNzYgNzEuOTUsMTM0LjQ5IDc3LjA4LDEzMi40NiA4Mi4yMSwxMjkuMzcgODcuMzQsMTI0Ljg2IDkyLjQ3LDExOC41OCA5Ny42MSwxMTAuMjIgMTAyLjc0LDk5LjY0IDEwNy44Nyw4Ni45NCAxMTMuMDAsNzIuNTEgMTE4LjEzLDU3LjEwIDEyMy4yNiw0MS43OSAxMjguNDAsMjcuODUgMTMzLjUzLDE2LjYxICcgc3R5bGU9J3N0cm9rZS13aWR0aDogMS4wNzsgc3Ryb2tlOiBub25lOyBzdHJva2UtbGluZWNhcDogYnV0dDsnIC8+Cjxwb2x5bGluZSBwb2ludHM9JzEzMy41MywxMzcuNDUgMTI4LjQwLDEzNy40NSAxMjMuMjYsMTM3LjQ1IDExOC4xMywxMzcuNDUgMTEzLjAwLDEzNy40NSAxMDcuODcsMTM3LjQ1IDEwMi43NCwxMzcuNDUgOTcuNjEsMTM3LjQ1IDkyLjQ3LDEzNy40NSA4Ny4zNCwxMzcuNDUgODIuMjEsMTM3LjQ1IDc3LjA4LDEzNy40NSA3MS45NSwxMzcuNDUgNjYuODIsMTM3LjQ1IDYxLjY4LDEzNy40NSA1Ni41NSwxMzcuNDUgNTEuNDIsMTM3LjQ1IDQ2LjI5LDEzNy40NSA0MS4xNiwxMzcuNDUgMzYuMDMsMTM3LjQ1IDMwLjg5LDEzNy40NSAyNS43NiwxMzcuNDUgMjAuNjMsMTM3LjQ1IDE1LjUwLDEzNy40NSAnIHN0eWxlPSdzdHJva2Utd2lkdGg6IDEuMDc7IHN0cm9rZTogbm9uZTsgc3Ryb2tlLWxpbmVjYXA6IGJ1dHQ7JyAvPgo8cG9seWdvbiBwb2ludHM9JzE1NC40NywxNi42MSAxNTkuNjAsMjcuODUgMTY0Ljc0LDQxLjc5IDE2OS44Nyw1Ny4xMCAxNzUuMDAsNzIuNTEgMTgwLjEzLDg2Ljk0IDE4NS4yNiw5OS42NCAxOTAuMzksMTEwLjIyIDE5NS41MywxMTguNTggMjAwLjY2LDEyNC44NiAyMDUuNzksMTI5LjM3IDIxMC45MiwxMzIuNDYgMjE2LjA1LDEzNC40OSAyMjEuMTgsMTM1Ljc2IDIyNi4zMiwxMzYuNTIgMjMxLjQ1LDEzNi45NiAyMzYuNTgsMTM3LjIwIDI0MS43MSwxMzcuMzMgMjQ2Ljg0LDEzNy40MCAyNTEuOTcsMTM3LjQzIDI1Ny4xMSwxMzcuNDQgMjYyLjI0LDEzNy40NSAyNjcuMzcsMTM3LjQ1IDI3Mi41MCwxMzcuNDUgMjcyLjUwLDEzNy40NSAyNjcuMzcsMTM3LjQ1IDI2Mi4yNCwxMzcuNDUgMjU3LjExLDEzNy40NSAyNTEuOTcsMTM3LjQ1IDI0Ni44NCwxMzcuNDUgMjQxLjcxLDEzNy40NSAyMzYuNTgsMTM3LjQ1IDIzMS40NSwxMzcuNDUgMjI2LjMyLDEzNy40NSAyMjEuMTgsMTM3LjQ1IDIxNi4wNSwxMzcuNDUgMjEwLjkyLDEzNy40NSAyMDUuNzksMTM3LjQ1IDIwMC42NiwxMzcuNDUgMTk1LjUzLDEzNy40NSAxOTAuMzksMTM3LjQ1IDE4NS4yNiwxMzcuNDUgMTgwLjEzLDEzNy40NSAxNzUuMDAsMTM3LjQ1IDE2OS44NywxMzcuNDUgMTY0Ljc0LDEzNy40NSAxNTkuNjAsMTM3LjQ1IDE1NC40NywxMzcuNDUgJyBzdHlsZT0nc3Ryb2tlLXdpZHRoOiAwLjAwOyBzdHJva2U6IG5vbmU7IHN0cm9rZS1saW5lY2FwOiBidXR0OyBmaWxsOiAjMUU5MEZGOyBmaWxsLW9wYWNpdHk6IDAuNDA7JyAvPgo8cG9seWxpbmUgcG9pbnRzPScxNTQuNDcsMTYuNjEgMTU5LjYwLDI3Ljg1IDE2NC43NCw0MS43OSAxNjkuODcsNTcuMTAgMTc1LjAwLDcyLjUxIDE4MC4xMyw4Ni45NCAxODUuMjYsOTkuNjQgMTkwLjM5LDExMC4yMiAxOTUuNTMsMTE4LjU4IDIwMC42NiwxMjQuODYgMjA1Ljc5LDEyOS4zNyAyMTAuOTIsMTMyLjQ2IDIxNi4wNSwxMzQuNDkgMjIxLjE4LDEzNS43NiAyMjYuMzIsMTM2LjUyIDIzMS40NSwxMzYuOTYgMjM2LjU4LDEzNy4yMCAyNDEuNzEsMTM3LjMzIDI0Ni44NCwxMzcuNDAgMjUxLjk3LDEzNy40MyAyNTcuMTEsMTM3LjQ0IDI2Mi4yNCwxMzcuNDUgMjY3LjM3LDEzNy40NSAyNzIuNTAsMTM3LjQ1ICcgc3R5bGU9J3N0cm9rZS13aWR0aDogMS4wNzsgc3Ryb2tlOiBub25lOyBzdHJva2UtbGluZWNhcDogYnV0dDsnIC8+Cjxwb2x5bGluZSBwb2ludHM9JzI3Mi41MCwxMzcuNDUgMjY3LjM3LDEzNy40NSAyNjIuMjQsMTM3LjQ1IDI1Ny4xMSwxMzcuNDUgMjUxLjk3LDEzNy40NSAyNDYuODQsMTM3LjQ1IDI0MS43MSwxMzcuNDUgMjM2LjU4LDEzNy40NSAyMzEuNDUsMTM3LjQ1IDIyNi4zMiwxMzcuNDUgMjIxLjE4LDEzNy40NSAyMTYuMDUsMTM3LjQ1IDIxMC45MiwxMzcuNDUgMjA1Ljc5LDEzNy40NSAyMDAuNjYsMTM3LjQ1IDE5NS41MywxMzcuNDUgMTkwLjM5LDEzNy40NSAxODUuMjYsMTM3LjQ1IDE4MC4xMywxMzcuNDUgMTc1LjAwLDEzNy40NSAxNjkuODcsMTM3LjQ1IDE2NC43NCwxMzcuNDUgMTU5LjYwLDEzNy40NSAxNTQuNDcsMTM3LjQ1ICcgc3R5bGU9J3N0cm9rZS13aWR0aDogMS4wNzsgc3Ryb2tlOiBub25lOyBzdHJva2UtbGluZWNhcDogYnV0dDsnIC8+Cjxwb2x5Z29uIHBvaW50cz0nMTMzLjUzLDE2LjYxIDEzMy43NCwxNi4yMyAxMzMuOTUsMTUuODUgMTM0LjE2LDE1LjQ4IDEzNC4zNywxNS4xMiAxMzQuNTcsMTQuNzYgMTM0Ljc4LDE0LjQxIDEzNC45OSwxNC4wNyAxMzUuMjAsMTMuNzMgMTM1LjQxLDEzLjQwIDEzNS42MiwxMy4wOCAxMzUuODMsMTIuNzYgMTM2LjA0LDEyLjQ2IDEzNi4yNSwxMi4xNiAxMzYuNDYsMTEuODYgMTM2LjY3LDExLjU4IDEzNi44OCwxMS4zMCAxMzcuMDksMTEuMDMgMTM3LjMwLDEwLjc3IDEzNy41MSwxMC41MSAxMzcuNzIsMTAuMjYgMTM3LjkzLDEwLjAyIDEzOC4xNCw5Ljc5IDEzOC4zNCw5LjU2IDEzOC41NSw5LjM1IDEzOC43Niw5LjE0IDEzOC45Nyw4Ljk0IDEzOS4xOCw4Ljc0IDEzOS4zOSw4LjU2IDEzOS42MCw4LjM4IDEzOS44MSw4LjIxIDE0MC4wMiw4LjA1IDE0MC4yMyw3LjkwIDE0MC40NCw3Ljc1IDE0MC42NSw3LjYxIDE0MC44Niw3LjQ4IDE0MS4wNyw3LjM2IDE0MS4yOCw3LjI1IDE0MS40OSw3LjE1IDE0MS43MCw3LjA1IDE0MS45MSw2Ljk2IDE0Mi4xMSw2Ljg4IDE0Mi4zMiw2LjgxIDE0Mi41Myw2Ljc1IDE0Mi43NCw2LjcwIDE0Mi45NSw2LjY1IDE0My4xNiw2LjYxIDE0My4zNyw2LjU4IDE0My41OCw2LjU2IDE0My43OSw2LjU1IDE0NC4wMCw2LjU1IDE0NC4yMSw2LjU1IDE0NC40Miw2LjU2IDE0NC42Myw2LjU4IDE0NC44NCw2LjYxIDE0NS4wNSw2LjY1IDE0NS4yNiw2LjcwIDE0NS40Nyw2Ljc1IDE0NS42OCw2LjgxIDE0NS44OSw2Ljg4IDE0Ni4wOSw2Ljk2IDE0Ni4zMCw3LjA1IDE0Ni41MSw3LjE1IDE0Ni43Miw3LjI1IDE0Ni45Myw3LjM2IDE0Ny4xNCw3LjQ4IDE0Ny4zNSw3LjYxIDE0Ny41Niw3Ljc1IDE0Ny43Nyw3LjkwIDE0Ny45OCw4LjA1IDE0OC4xOSw4LjIxIDE0OC40MCw4LjM4IDE0OC42MSw4LjU2IDE0OC44Miw4Ljc0IDE0OS4wMyw4Ljk0IDE0OS4yNCw5LjE0IDE0OS40NSw5LjM1IDE0OS42Niw5LjU2IDE0OS44Niw5Ljc5IDE1MC4wNywxMC4wMiAxNTAuMjgsMTAuMjYgMTUwLjQ5LDEwLjUxIDE1MC43MCwxMC43NyAxNTAuOTEsMTEuMDMgMTUxLjEyLDExLjMwIDE1MS4zMywxMS41OCAxNTEuNTQsMTEuODYgMTUxLjc1LDEyLjE2IDE1MS45NiwxMi40NiAxNTIuMTcsMTIuNzYgMTUyLjM4LDEzLjA4IDE1Mi41OSwxMy40MCAxNTIuODAsMTMuNzMgMTUzLjAxLDE0LjA3IDE1My4yMiwxNC40MSAxNTMuNDMsMTQuNzYgMTUzLjYzLDE1LjEyIDE1My44NCwxNS40OCAxNTQuMDUsMTUuODUgMTU0LjI2LDE2LjIzIDE1NC40NywxNi42MSAxNTQuNDcsMTM3LjQ1IDE1NC4yNiwxMzcuNDUgMTU0LjA1LDEzNy40NSAxNTMuODQsMTM3LjQ1IDE1My42MywxMzcuNDUgMTUzLjQzLDEzNy40NSAxNTMuMjIsMTM3LjQ1IDE1My4wMSwxMzcuNDUgMTUyLjgwLDEzNy40NSAxNTIuNTksMTM3LjQ1IDE1Mi4zOCwxMzcuNDUgMTUyLjE3LDEzNy40NSAxNTEuOTYsMTM3LjQ1IDE1MS43NSwxMzcuNDUgMTUxLjU0LDEzNy40NSAxNTEuMzMsMTM3LjQ1IDE1MS4xMiwxMzcuNDUgMTUwLjkxLDEzNy40NSAxNTAuNzAsMTM3LjQ1IDE1MC40OSwxMzcuNDUgMTUwLjI4LDEzNy40NSAxNTAuMDcsMTM3LjQ1IDE0OS44NiwxMzcuNDUgMTQ5LjY2LDEzNy40NSAxNDkuNDUsMTM3LjQ1IDE0OS4yNCwxMzcuNDUgMTQ5LjAzLDEzNy40NSAxNDguODIsMTM3LjQ1IDE0OC42MSwxMzcuNDUgMTQ4LjQwLDEzNy40NSAxNDguMTksMTM3LjQ1IDE0Ny45OCwxMzcuNDUgMTQ3Ljc3LDEzNy40NSAxNDcuNTYsMTM3LjQ1IDE0Ny4zNSwxMzcuNDUgMTQ3LjE0LDEzNy40NSAxNDYuOTMsMTM3LjQ1IDE0Ni43MiwxMzcuNDUgMTQ2LjUxLDEzNy40NSAxNDYuMzAsMTM3LjQ1IDE0Ni4wOSwxMzcuNDUgMTQ1Ljg5LDEzNy40NSAxNDUuNjgsMTM3LjQ1IDE0NS40NywxMzcuNDUgMTQ1LjI2LDEzNy40NSAxNDUuMDUsMTM3LjQ1IDE0NC44NCwxMzcuNDUgMTQ0LjYzLDEzNy40NSAxNDQuNDIsMTM3LjQ1IDE0NC4yMSwxMzcuNDUgMTQ0LjAwLDEzNy40NSAxNDMuNzksMTM3LjQ1IDE0My41OCwxMzcuNDUgMTQzLjM3LDEzNy40NSAxNDMuMTYsMTM3LjQ1IDE0Mi45NSwxMzcuNDUgMTQyLjc0LDEzNy40NSAxNDIuNTMsMTM3LjQ1IDE0Mi4zMiwxMzcuNDUgMTQyLjExLDEzNy40NSAxNDEuOTEsMTM3LjQ1IDE0MS43MCwxMzcuNDUgMTQxLjQ5LDEzNy40NSAxNDEuMjgsMTM3LjQ1IDE0MS4wNywxMzcuNDUgMTQwLjg2LDEzNy40NSAxNDAuNjUsMTM3LjQ1IDE0MC40NCwxMzcuNDUgMTQwLjIzLDEzNy40NSAxNDAuMDIsMTM3LjQ1IDEzOS44MSwxMzcuNDUgMTM5LjYwLDEzNy40NSAxMzkuMzksMTM3LjQ1IDEzOS4xOCwxMzcuNDUgMTM4Ljk3LDEzNy40NSAxMzguNzYsMTM3LjQ1IDEzOC41NSwxMzcuNDUgMTM4LjM0LDEzNy40NSAxMzguMTQsMTM3LjQ1IDEzNy45MywxMzcuNDUgMTM3LjcyLDEzNy40NSAxMzcuNTEsMTM3LjQ1IDEzNy4zMCwxMzcuNDUgMTM3LjA5LDEzNy40NSAxMzYuODgsMTM3LjQ1IDEzNi42NywxMzcuNDUgMTM2LjQ2LDEzNy40NSAxMzYuMjUsMTM3LjQ1IDEzNi4wNCwxMzcuNDUgMTM1LjgzLDEzNy40NSAxMzUuNjIsMTM3LjQ1IDEzNS40MSwxMzcuNDUgMTM1LjIwLDEzNy40NSAxMzQuOTksMTM3LjQ1IDEzNC43OCwxMzcuNDUgMTM0LjU3LDEzNy40NSAxMzQuMzcsMTM3LjQ1IDEzNC4xNiwxMzcuNDUgMTMzLjk1LDEzNy40NSAxMzMuNzQsMTM3LjQ1IDEzMy41MywxMzcuNDUgJyBzdHlsZT0nc3Ryb2tlLXdpZHRoOiAwLjAwOyBzdHJva2U6IG5vbmU7IHN0cm9rZS1saW5lY2FwOiBidXR0OyBmaWxsOiAjMDAwMDAwOyBmaWxsLW9wYWNpdHk6IDAuNDA7JyAvPgo8cG9seWxpbmUgcG9pbnRzPScxMzMuNTMsMTYuNjEgMTMzLjc0LDE2LjIzIDEzMy45NSwxNS44NSAxMzQuMTYsMTUuNDggMTM0LjM3LDE1LjEyIDEzNC41NywxNC43NiAxMzQuNzgsMTQuNDEgMTM0Ljk5LDE0LjA3IDEzNS4yMCwxMy43MyAxMzUuNDEsMTMuNDAgMTM1LjYyLDEzLjA4IDEzNS44MywxMi43NiAxMzYuMDQsMTIuNDYgMTM2LjI1LDEyLjE2IDEzNi40NiwxMS44NiAxMzYuNjcsMTEuNTggMTM2Ljg4LDExLjMwIDEzNy4wOSwxMS4wMyAxMzcuMzAsMTAuNzcgMTM3LjUxLDEwLjUxIDEzNy43MiwxMC4yNiAxMzcuOTMsMTAuMDIgMTM4LjE0LDkuNzkgMTM4LjM0LDkuNTYgMTM4LjU1LDkuMzUgMTM4Ljc2LDkuMTQgMTM4Ljk3LDguOTQgMTM5LjE4LDguNzQgMTM5LjM5LDguNTYgMTM5LjYwLDguMzggMTM5LjgxLDguMjEgMTQwLjAyLDguMDUgMTQwLjIzLDcuOTAgMTQwLjQ0LDcuNzUgMTQwLjY1LDcuNjEgMTQwLjg2LDcuNDggMTQxLjA3LDcuMzYgMTQxLjI4LDcuMjUgMTQxLjQ5LDcuMTUgMTQxLjcwLDcuMDUgMTQxLjkxLDYuOTYgMTQyLjExLDYuODggMTQyLjMyLDYuODEgMTQyLjUzLDYuNzUgMTQyLjc0LDYuNzAgMTQyLjk1LDYuNjUgMTQzLjE2LDYuNjEgMTQzLjM3LDYuNTggMTQzLjU4LDYuNTYgMTQzLjc5LDYuNTUgMTQ0LjAwLDYuNTUgMTQ0LjIxLDYuNTUgMTQ0LjQyLDYuNTYgMTQ0LjYzLDYuNTggMTQ0Ljg0LDYuNjEgMTQ1LjA1LDYuNjUgMTQ1LjI2LDYuNzAgMTQ1LjQ3LDYuNzUgMTQ1LjY4LDYuODEgMTQ1Ljg5LDYuODggMTQ2LjA5LDYuOTYgMTQ2LjMwLDcuMDUgMTQ2LjUxLDcuMTUgMTQ2LjcyLDcuMjUgMTQ2LjkzLDcuMzYgMTQ3LjE0LDcuNDggMTQ3LjM1LDcuNjEgMTQ3LjU2LDcuNzUgMTQ3Ljc3LDcuOTAgMTQ3Ljk4LDguMDUgMTQ4LjE5LDguMjEgMTQ4LjQwLDguMzggMTQ4LjYxLDguNTYgMTQ4LjgyLDguNzQgMTQ5LjAzLDguOTQgMTQ5LjI0LDkuMTQgMTQ5LjQ1LDkuMzUgMTQ5LjY2LDkuNTYgMTQ5Ljg2LDkuNzkgMTUwLjA3LDEwLjAyIDE1MC4yOCwxMC4yNiAxNTAuNDksMTAuNTEgMTUwLjcwLDEwLjc3IDE1MC45MSwxMS4wMyAxNTEuMTIsMTEuMzAgMTUxLjMzLDExLjU4IDE1MS41NCwxMS44NiAxNTEuNzUsMTIuMTYgMTUxLjk2LDEyLjQ2IDE1Mi4xNywxMi43NiAxNTIuMzgsMTMuMDggMTUyLjU5LDEzLjQwIDE1Mi44MCwxMy43MyAxNTMuMDEsMTQuMDcgMTUzLjIyLDE0LjQxIDE1My40MywxNC43NiAxNTMuNjMsMTUuMTIgMTUzLjg0LDE1LjQ4IDE1NC4wNSwxNS44NSAxNTQuMjYsMTYuMjMgMTU0LjQ3LDE2LjYxICcgc3R5bGU9J3N0cm9rZS13aWR0aDogMS4wNzsgc3Ryb2tlOiBub25lOyBzdHJva2UtbGluZWNhcDogYnV0dDsnIC8+Cjxwb2x5bGluZSBwb2ludHM9JzE1NC40NywxMzcuNDUgMTU0LjI2LDEzNy40NSAxNTQuMDUsMTM3LjQ1IDE1My44NCwxMzcuNDUgMTUzLjYzLDEzNy40NSAxNTMuNDMsMTM3LjQ1IDE1My4yMiwxMzcuNDUgMTUzLjAxLDEzNy40NSAxNTIuODAsMTM3LjQ1IDE1Mi41OSwxMzcuNDUgMTUyLjM4LDEzNy40NSAxNTIuMTcsMTM3LjQ1IDE1MS45NiwxMzcuNDUgMTUxLjc1LDEzNy40NSAxNTEuNTQsMTM3LjQ1IDE1MS4zMywxMzcuNDUgMTUxLjEyLDEzNy40NSAxNTAuOTEsMTM3LjQ1IDE1MC43MCwxMzcuNDUgMTUwLjQ5LDEzNy40NSAxNTAuMjgsMTM3LjQ1IDE1MC4wNywxMzcuNDUgMTQ5Ljg2LDEzNy40NSAxNDkuNjYsMTM3LjQ1IDE0OS40NSwxMzcuNDUgMTQ5LjI0LDEzNy40NSAxNDkuMDMsMTM3LjQ1IDE0OC44MiwxMzcuNDUgMTQ4LjYxLDEzNy40NSAxNDguNDAsMTM3LjQ1IDE0OC4xOSwxMzcuNDUgMTQ3Ljk4LDEzNy40NSAxNDcuNzcsMTM3LjQ1IDE0Ny41NiwxMzcuNDUgMTQ3LjM1LDEzNy40NSAxNDcuMTQsMTM3LjQ1IDE0Ni45MywxMzcuNDUgMTQ2LjcyLDEzNy40NSAxNDYuNTEsMTM3LjQ1IDE0Ni4zMCwxMzcuNDUgMTQ2LjA5LDEzNy40NSAxNDUuODksMTM3LjQ1IDE0NS42OCwxMzcuNDUgMTQ1LjQ3LDEzNy40NSAxNDUuMjYsMTM3LjQ1IDE0NS4wNSwxMzcuNDUgMTQ0Ljg0LDEzNy40NSAxNDQuNjMsMTM3LjQ1IDE0NC40MiwxMzcuNDUgMTQ0LjIxLDEzNy40NSAxNDQuMDAsMTM3LjQ1IDE0My43OSwxMzcuNDUgMTQzLjU4LDEzNy40NSAxNDMuMzcsMTM3LjQ1IDE0My4xNiwxMzcuNDUgMTQyLjk1LDEzNy40NSAxNDIuNzQsMTM3LjQ1IDE0Mi41MywxMzcuNDUgMTQyLjMyLDEzNy40NSAxNDIuMTEsMTM3LjQ1IDE0MS45MSwxMzcuNDUgMTQxLjcwLDEzNy40NSAxNDEuNDksMTM3LjQ1IDE0MS4yOCwxMzcuNDUgMTQxLjA3LDEzNy40NSAxNDAuODYsMTM3LjQ1IDE0MC42NSwxMzcuNDUgMTQwLjQ0LDEzNy40NSAxNDAuMjMsMTM3LjQ1IDE0MC4wMiwxMzcuNDUgMTM5LjgxLDEzNy40NSAxMzkuNjAsMTM3LjQ1IDEzOS4zOSwxMzcuNDUgMTM5LjE4LDEzNy40NSAxMzguOTcsMTM3LjQ1IDEzOC43NiwxMzcuNDUgMTM4LjU1LDEzNy40NSAxMzguMzQsMTM3LjQ1IDEzOC4xNCwxMzcuNDUgMTM3LjkzLDEzNy40NSAxMzcuNzIsMTM3LjQ1IDEzNy41MSwxMzcuNDUgMTM3LjMwLDEzNy40NSAxMzcuMDksMTM3LjQ1IDEzNi44OCwxMzcuNDUgMTM2LjY3LDEzNy40NSAxMzYuNDYsMTM3LjQ1IDEzNi4yNSwxMzcuNDUgMTM2LjA0LDEzNy40NSAxMzUuODMsMTM3LjQ1IDEzNS42MiwxMzcuNDUgMTM1LjQxLDEzNy40NSAxMzUuMjAsMTM3LjQ1IDEzNC45OSwxMzcuNDUgMTM0Ljc4LDEzNy40NSAxMzQuNTcsMTM3LjQ1IDEzNC4zNywxMzcuNDUgMTM0LjE2LDEzNy40NSAxMzMuOTUsMTM3LjQ1IDEzMy43NCwxMzcuNDUgMTMzLjUzLDEzNy40NSAnIHN0eWxlPSdzdHJva2Utd2lkdGg6IDEuMDc7IHN0cm9rZTogbm9uZTsgc3Ryb2tlLWxpbmVjYXA6IGJ1dHQ7JyAvPgo8bGluZSB4MT0nMTMzLjUzJyB5MT0nMTM3LjQ1JyB4Mj0nMTMzLjUzJyB5Mj0nMTYuNjEnIHN0eWxlPSdzdHJva2Utd2lkdGg6IDEuMDc7IHN0cm9rZS1kYXNoYXJyYXk6IDUuNjksNS42OTsgc3Ryb2tlLWxpbmVjYXA6IGJ1dHQ7JyAvPgo8bGluZSB4MT0nMTU0LjQ3JyB5MT0nMTM3LjQ1JyB4Mj0nMTU0LjQ3JyB5Mj0nMTYuNjEnIHN0eWxlPSdzdHJva2Utd2lkdGg6IDEuMDc7IHN0cm9rZS1kYXNoYXJyYXk6IDUuNjksNS42OTsgc3Ryb2tlLWxpbmVjYXA6IGJ1dHQ7JyAvPgo8L2c+Cjwvc3ZnPgo=;" vertex="1" parent="1">
          <mxGeometry x="231.82000000000005" y="10" width="384" height="192" as="geometry" />
        </mxCell>
      </root>
    </mxGraphModel>
  </diagram>
</mxfile>
